<svg width="596" height="73" viewBox="0 0 596 73" fill="none" xmlns="http://www.w3.org/2000/svg">
<path d="M578.984 72.5436C573.61 72.5436 569.513 71.0323 566.692 68.0096C563.871 64.9198 562.46 60.5202 562.46 54.8107V17.7329C562.46 12.0234 563.871 7.65738 566.692 4.63473C569.513 1.54491 573.61 0 578.984 0C584.358 0 588.455 1.54491 591.276 4.63473C594.097 7.65738 595.508 12.0234 595.508 17.7329V23.7782H585.029V17.0276C585.029 12.3929 583.115 10.0755 579.286 10.0755C575.458 10.0755 573.543 12.3929 573.543 17.0276V55.6168C573.543 60.1843 575.458 62.4681 579.286 62.4681C583.115 62.4681 585.029 60.1843 585.029 55.6168V41.8133H579.488V31.7378H595.508V54.8107C595.508 60.5202 594.097 64.9198 591.276 68.0096C588.455 71.0323 584.358 72.5436 578.984 72.5436Z" fill="black"/>
<path d="M520.268 1.00757H534.172L544.953 43.2239H545.155V1.00757H555.029V71.5361H543.643L530.344 20.0503H530.142V71.5361H520.268V1.00757Z" fill="black"/>
<path d="M500.885 1.00757H511.968V71.5361H500.885V1.00757Z" fill="black"/>
<path d="M446.67 1.00757H462.488L469.541 51.4858H469.743L476.796 1.00757H492.614V71.5361H482.136V18.1359H481.934L473.874 71.5361H464.604L456.544 18.1359H456.342V71.5361H446.67V1.00757Z" fill="black"/>
<path d="M392.455 1.00757H408.274L415.326 51.4858H415.528L422.581 1.00757H438.399V71.5361H427.921V18.1359H427.719L419.659 71.5361H410.389L402.329 18.1359H402.127V71.5361H392.455V1.00757Z" fill="black"/>
<path d="M360.579 1.00757H375.592L387.078 71.5361H375.995L373.98 57.5311V57.7327H361.385L359.37 71.5361H349.093L360.579 1.00757ZM372.67 48.1609L367.733 13.2997H367.532L362.695 48.1609H372.67Z" fill="black"/>
<path d="M311.379 1.00757H327.802C333.511 1.00757 337.676 2.35097 340.295 5.03777C342.915 7.6574 344.225 11.7212 344.225 17.2291V21.5616C344.225 28.8831 341.807 33.5179 336.97 35.4658V35.6673C339.657 36.4733 341.538 38.119 342.613 40.6043C343.755 43.0896 344.326 46.4145 344.326 50.579V62.9719C344.326 64.987 344.393 66.6327 344.527 67.9089C344.661 69.118 344.997 70.327 345.535 71.5361H334.25C333.847 70.3942 333.578 69.3195 333.444 68.3119C333.31 67.3044 333.243 65.4908 333.243 62.8712V49.9745C333.243 46.7504 332.705 44.5002 331.63 43.2239C330.623 41.9477 328.843 41.3096 326.29 41.3096H322.462V71.5361H311.379V1.00757ZM326.492 31.2341C328.709 31.2341 330.354 30.6631 331.429 29.5212C332.571 28.3794 333.142 26.465 333.142 23.7782V18.3374C333.142 15.785 332.672 13.9378 331.731 12.7959C330.858 11.654 329.447 11.0831 327.499 11.0831H322.462V31.2341H326.492Z" fill="black"/>
<path d="M287.739 72.5436C282.365 72.5436 278.268 71.0323 275.447 68.0096C272.626 64.9198 271.215 60.5202 271.215 54.8107V17.7329C271.215 12.0234 272.626 7.65738 275.447 4.63473C278.268 1.54491 282.365 0 287.739 0C293.113 0 297.21 1.54491 300.031 4.63473C302.852 7.65738 304.263 12.0234 304.263 17.7329V23.7782H293.784V17.0276C293.784 12.3929 291.87 10.0755 288.041 10.0755C284.213 10.0755 282.298 12.3929 282.298 17.0276V55.6168C282.298 60.1843 284.213 62.4681 288.041 62.4681C291.87 62.4681 293.784 60.1843 293.784 55.6168V41.8133H288.243V31.7378H304.263V54.8107C304.263 60.5202 302.852 64.9198 300.031 68.0096C297.21 71.0323 293.113 72.5436 287.739 72.5436Z" fill="black"/>
<path d="M247.7 72.5436C242.259 72.5436 238.095 70.9987 235.206 67.9089C232.318 64.8191 230.874 60.453 230.874 54.8107V17.7329C230.874 12.0906 232.318 7.72455 235.206 4.63473C238.095 1.54491 242.259 0 247.7 0C253.141 0 257.305 1.54491 260.194 4.63473C263.082 7.72455 264.526 12.0906 264.526 17.7329V54.8107C264.526 60.453 263.082 64.8191 260.194 67.9089C257.305 70.9987 253.141 72.5436 247.7 72.5436ZM247.7 62.4681C251.529 62.4681 253.443 60.1507 253.443 55.516V17.0276C253.443 12.3929 251.529 10.0755 247.7 10.0755C243.871 10.0755 241.957 12.3929 241.957 17.0276V55.516C241.957 60.1507 243.871 62.4681 247.7 62.4681Z" fill="black"/>
<path d="M191.043 1.00757H207.466C213.176 1.00757 217.34 2.35097 219.96 5.03777C222.58 7.6574 223.889 11.7212 223.889 17.2291V21.5616C223.889 28.8831 221.471 33.5179 216.635 35.4658V35.6673C219.322 36.4733 221.203 38.119 222.277 40.6043C223.419 43.0896 223.99 46.4145 223.99 50.579V62.9719C223.99 64.987 224.057 66.6327 224.192 67.9089C224.326 69.118 224.662 70.327 225.199 71.5361H213.915C213.512 70.3942 213.243 69.3195 213.109 68.3119C212.974 67.3044 212.907 65.4908 212.907 62.8712V49.9745C212.907 46.7504 212.37 44.5002 211.295 43.2239C210.288 41.9477 208.508 41.3096 205.955 41.3096H202.126V71.5361H191.043V1.00757ZM206.157 31.2341C208.373 31.2341 210.019 30.6631 211.094 29.5212C212.235 28.3794 212.806 26.465 212.806 23.7782V18.3374C212.806 15.785 212.336 13.9378 211.396 12.7959C210.523 11.654 209.112 11.0831 207.164 11.0831H202.126V31.2341H206.157Z" fill="black"/>
<path d="M152.178 1.00757H168.5C174.008 1.00757 178.139 2.48531 180.893 5.44079C183.647 8.39627 185.024 12.7287 185.024 18.4382V25.3903C185.024 31.0997 183.647 35.4322 180.893 38.3877C178.139 41.3432 174.008 42.8209 168.5 42.8209H163.261V71.5361H152.178V1.00757ZM168.5 32.7454C170.314 32.7454 171.657 32.2416 172.53 31.2341C173.471 30.2265 173.941 28.5137 173.941 26.0956V17.7329C173.941 15.3148 173.471 13.6019 172.53 12.5944C171.657 11.5868 170.314 11.0831 168.5 11.0831H163.261V32.7454H168.5Z" fill="black"/>
<path d="M95.3064 1.00757H112.032C117.741 1.00757 121.906 2.35097 124.525 5.03777C127.145 7.6574 128.455 11.7212 128.455 17.2291V20.0503C128.455 23.6774 127.85 26.6329 126.641 28.9167C125.499 31.2005 123.719 32.8462 121.301 33.8537V34.0552C126.809 35.936 129.563 40.8394 129.563 48.7655V54.8108C129.563 60.2515 128.119 64.4161 125.231 67.3044C122.409 70.1255 118.245 71.5361 112.737 71.5361H95.3064V1.00757ZM110.722 29.7228C112.939 29.7228 114.584 29.1518 115.659 28.0099C116.801 26.868 117.372 24.9537 117.372 22.2669V18.3374C117.372 15.785 116.902 13.9378 115.961 12.7959C115.088 11.654 113.677 11.0831 111.729 11.0831H106.389V29.7228H110.722ZM112.737 61.4606C114.685 61.4606 116.129 60.9568 117.069 59.9493C118.01 58.8745 118.48 57.0609 118.48 54.5085V48.3624C118.48 45.1383 117.909 42.9217 116.767 41.7126C115.692 40.4364 113.879 39.7983 111.326 39.7983H106.389V61.4606H112.737Z" fill="black"/>
<path d="M58.704 1.00757H88.9305V11.0831H69.787V29.7228H85.001V39.7983H69.787V61.4606H88.9305V71.5361H58.704V1.00757Z" fill="black"/>
<path d="M0 1.00757H10.68L15.617 55.2138H15.8185L21.0578 1.00757H33.1484L38.3877 55.2138H38.5892L43.5262 1.00757H53.0979L45.9443 71.5361H32.1409L27.1031 23.9797H26.9016L21.8638 71.5361H7.15361L0 1.00757Z" fill="black"/>
</svg>
